<?xml version="1.0" encoding="utf-8"?>
<!-- Generator: Adobe Illustrator 21.0.0, SVG Export Plug-In . SVG Version: 6.00 Build 0)  -->
<svg version="1.1" id="Layer_1" xmlns="http://www.w3.org/2000/svg" xmlns:xlink="http://www.w3.org/1999/xlink" x="0px" y="0px"
	 width="630px" height="184px" viewBox="0 0 630 184" enable-background="new 0 0 630 184" xml:space="preserve">
<g>
	<path fill="#FF7858" d="M66.566,113.61c-1.397-1.241-3.144-2.193-5.24-2.853c-2.096-0.659-4.154-0.99-6.172-0.99
		c-2.253,0-4.309,0.408-6.172,1.223c-1.863,0.815-3.475,1.941-4.833,3.377c-1.359,1.437-2.427,3.164-3.202,5.182
		c-0.777,2.02-1.165,4.192-1.165,6.522c0,2.329,0.426,4.503,1.281,6.521c0.853,2.02,2.018,3.747,3.494,5.182
		c1.474,1.437,3.202,2.562,5.182,3.377c1.98,0.815,4.094,1.223,6.347,1.223c2.639,0,5.046-0.562,7.22-1.689
		c2.173-1.125,4.036-2.659,5.59-4.6h-6.987v-16.304h29.929v25.853c-1.787,3.184-3.921,6.076-6.405,8.676
		c-2.486,2.602-5.26,4.833-8.326,6.696c-3.068,1.863-6.387,3.301-9.957,4.309c-3.572,1.008-7.26,1.514-11.063,1.514
		c-5.59,0-10.87-1.048-15.838-3.144c-4.969-2.096-9.298-4.967-12.985-8.617c-3.688-3.648-6.6-7.957-8.734-12.927
		c-2.136-4.967-3.202-10.325-3.202-16.071c0-5.59,1.008-10.869,3.028-15.838c2.018-4.967,4.793-9.296,8.327-12.985
		c3.532-3.686,7.724-6.598,12.577-8.734c4.851-2.134,10.073-3.202,15.663-3.202c4.347,0,8.112,0.427,11.296,1.281
		c3.182,0.855,5.861,1.825,8.036,2.911c2.562,1.243,4.696,2.602,6.405,4.076L66.566,113.61z M67.731,98.588
		c-1.01-0.466-2.136-0.853-3.377-1.165c-1.088-0.309-2.369-0.582-3.843-0.815c-1.476-0.233-3.106-0.35-4.891-0.35
		c-4.116,0-7.959,0.739-11.529,2.212c-3.572,1.476-6.678,3.514-9.316,6.114c-2.64,2.602-4.716,5.726-6.23,9.375
		c-1.514,3.65-2.271,7.686-2.271,12.112c0,4.425,0.775,8.463,2.329,12.111c1.552,3.65,3.687,6.774,6.405,9.375
		c2.717,2.602,5.881,4.64,9.491,6.114c3.61,1.475,7.471,2.212,11.587,2.212c5.357,0,10.208-1.261,14.557-3.785
		c4.347-2.522,7.879-5.881,10.597-10.074V126.77H68.896v2.795h9.316v11.646c-2.407,3.572-5.532,6.405-9.375,8.501
		c-3.843,2.096-8.094,3.144-12.752,3.144c-3.726,0-7.202-0.641-10.423-1.921c-3.222-1.281-6.056-3.104-8.501-5.473
		c-2.446-2.368-4.367-5.2-5.765-8.501c-1.397-3.299-2.096-6.929-2.096-10.889c0-3.96,0.679-7.588,2.038-10.889
		c1.357-3.299,3.221-6.132,5.59-8.501c2.367-2.367,5.142-4.192,8.327-5.473c3.182-1.281,6.638-1.921,10.365-1.921
		c1.397,0,2.717,0.116,3.959,0.349c1.241,0.233,2.329,0.466,3.261,0.699c1.086,0.311,2.096,0.622,3.028,0.932L67.731,98.588z"/>
	<path fill="#FF7858" d="M121.299,87.175h18.633l29.463,77.676H144.94l-2.562-6.987h-23.524l-2.562,6.987H91.836L121.299,87.175z
		 M109.188,155.534l2.213-5.822h38.43l2.213,5.822h3.261l-22.476-59.043h-4.425l-22.476,59.043H109.188z M130.616,99.286
		l18.167,47.63h-36.334L130.616,99.286z M135.856,140.744l-5.241-13.625l-5.24,13.625H135.856z"/>
	<path fill="#FF7858" d="M171.141,87.175h26.785c4.967,0,9.567,0.66,13.8,1.98c4.231,1.321,7.899,3.261,11.005,5.823
		c3.104,2.562,5.532,5.726,7.279,9.491c1.747,3.767,2.62,8.094,2.62,12.985c0,3.883-0.544,7.182-1.63,9.899
		c-1.088,2.718-2.291,4.97-3.61,6.755c-1.554,2.02-3.301,3.726-5.241,5.124l14.557,25.62h-29.114l-11.646-19.681v19.681h-24.805
		V87.175z M195.364,137.833c3.028,0,5.977-0.309,8.851-0.932l11.063,18.633h3.61l-11.646-19.564
		c4.192-1.474,7.53-3.745,10.015-6.813c2.484-3.066,3.726-7.046,3.726-11.937c0-3.415-0.66-6.405-1.98-8.967
		c-1.321-2.562-3.126-4.716-5.415-6.463c-2.291-1.747-4.99-3.066-8.094-3.96c-3.106-0.892-6.483-1.339-10.132-1.339h-12.577v59.043
		h3.028v-17.701H195.364z M185.815,135.038V99.286h9.549c7.064,0,12.595,1.554,16.595,4.658c3.998,3.106,5.997,7.531,5.997,13.276
		c0,5.746-2,10.152-5.997,13.218c-4,3.068-9.531,4.6-16.595,4.6H185.815z M195.946,125.372h1.281c2.95,0,5.453-0.659,7.511-1.98
		c2.056-1.319,3.086-3.532,3.086-6.638c0-3.104-1.03-5.317-3.086-6.638c-2.058-1.319-4.562-1.98-7.511-1.98h-1.281V125.372z"/>
	<path fill="#FF7858" d="M239.034,87.175h45.767v20.38h-20.962v8.618h20.613v19.332h-20.613v8.967h21.777v20.38h-46.582V87.175z
		 M276.999,155.534v-2.795h-23.291v-25.504h22.127v-2.795h-22.127V99.286h23.291v-2.795h-26.319v59.043H276.999z"/>
	<path fill="#FF7858" d="M292.602,87.175h25.853v57.296h21.428v20.38h-47.281V87.175z M333.362,155.534v-2.795h-26.086V96.491
		h-3.028v59.043H333.362z"/>
	<path fill="#FF7858" d="M454.618,87.175h20.496l20.263,29.812l20.147-29.812h20.496v77.676h-24.805v-27.949l-15.838,23.291
		l-15.954-23.291v27.949h-24.805V87.175z M469.292,155.534v-53.453l26.086,37.964l25.969-37.964v53.453h3.028V96.491h-3.028
		l-25.969,38.314l-26.086-38.314h-3.028v59.043H469.292z"/>
	<path fill="#FF7858" d="M567.23,87.175h18.633l29.463,77.676H590.87l-2.562-6.987h-23.524l-2.562,6.987h-24.456L567.23,87.175z
		 M555.119,155.534l2.213-5.822h38.43l2.213,5.822h3.261l-22.476-59.043h-4.425l-22.476,59.043H555.119z M576.547,99.286
		l18.167,47.63H558.38L576.547,99.286z M581.787,140.744l-5.24-13.625l-5.241,13.625H581.787z"/>
</g>
<g>
	<path fill="#FF7858" d="M357.465,125.795c0,5.205,0.981,10.087,2.945,14.653c1.963,4.565,4.662,8.566,8.099,12.002
		c3.435,3.437,7.437,6.137,12.002,8.099c4.565,1.965,9.448,2.945,14.653,2.945c5.203,0,10.088-0.98,14.653-2.945
		c4.565-1.963,8.564-4.662,12.002-8.099c3.435-3.435,6.135-7.437,8.099-12.002c1.963-4.566,2.945-9.448,2.945-14.653
		c0-5.203-0.983-10.088-2.945-14.653c-1.965-4.565-4.664-8.564-8.099-12.002c-3.437-3.435-7.437-6.134-12.002-8.099
		c-4.565-1.963-9.45-2.945-14.653-2.945c-5.205,0-10.088,0.983-14.653,2.945c-4.566,1.965-8.567,4.664-12.002,8.099
		c-3.437,3.438-6.137,7.437-8.099,12.002C358.446,115.707,357.465,120.592,357.465,125.795z M395.165,159.665
		c-4.713,0-9.108-0.884-13.18-2.651c-4.076-1.767-7.658-4.197-10.751-7.289c-3.092-3.093-5.522-6.675-7.289-10.75
		c-1.767-4.073-2.651-8.468-2.651-13.18c0-4.713,0.884-9.106,2.651-13.181c1.767-4.072,4.197-7.657,7.289-10.75
		c3.093-3.092,6.675-5.522,10.751-7.289c4.072-1.767,8.467-2.651,13.18-2.651c4.713,0,9.105,0.884,13.18,2.651
		c4.073,1.767,7.658,4.197,10.75,7.289c3.092,3.093,5.523,6.678,7.289,10.75c1.767,4.075,2.651,8.468,2.651,13.181
		c0,4.712-0.884,9.107-2.651,13.18c-1.767,4.075-4.197,7.657-7.289,10.75c-3.092,3.092-6.677,5.522-10.75,7.289
		C404.27,158.782,399.878,159.665,395.165,159.665z M374.548,125.795c0,2.848,0.538,5.522,1.62,8.025
		c1.079,2.504,2.552,4.69,4.418,6.553c1.864,1.866,4.049,3.339,6.553,4.418c2.503,1.082,5.177,1.62,8.026,1.62
		c2.846,0,5.522-0.538,8.026-1.62c2.503-1.079,4.687-2.552,6.553-4.418c1.864-1.864,3.336-4.049,4.417-6.553
		c1.08-2.503,1.62-5.177,1.62-8.025c0-2.847-0.541-5.523-1.62-8.026c-1.081-2.504-2.554-4.688-4.417-6.553
		c-1.866-1.864-4.05-3.337-6.553-4.418c-2.504-1.079-5.18-1.62-8.026-1.62c-2.849,0-5.523,0.541-8.026,1.62
		c-2.504,1.081-4.69,2.554-6.553,4.418c-1.866,1.866-3.339,4.049-4.418,6.553C375.086,120.272,374.548,122.948,374.548,125.795z"/>
	<g>
		<circle fill="#FFFFE7" cx="395.394" cy="127.115" r="47.864"/>
		<path fill="#FF7858" d="M395.394,76.67c-27.86,0-50.445,22.585-50.445,50.445s22.585,50.445,50.445,50.445
			s50.445-22.585,50.445-50.445S423.254,76.67,395.394,76.67z M395.394,172.164c-24.88,0-45.049-20.169-45.049-45.049
			s20.169-45.049,45.049-45.049s45.049,20.169,45.049,45.049S420.274,172.164,395.394,172.164z"/>
		<path fill="#FF7764" d="M384.132,93.329c-0.939-3.519,2.112-7.508,11.966-7.273c9.854,0.235,11.027,4.223,10.324,6.57
			c-0.704,2.346-6.1,19.474-7.977,24.636c-1.877,5.162-4.223,6.1-7.273-3.754C388.12,103.652,384.132,93.329,384.132,93.329z"/>
		<path fill="#FF7764" d="M411.142,95.172c1.807-3.162,6.781-3.854,13.623,3.242c6.842,7.096,4.872,10.757,2.722,11.93
			s-18.03,9.558-22.995,11.909s-7.292,1.368-2.532-7.784S411.142,95.172,411.142,95.172z"/>
		<path fill="#FF7764" d="M429.052,115.474c3.509-0.978,7.531,2.027,7.407,11.884c-0.124,9.856-4.099,11.074-6.453,10.397
			c-2.354-0.677-19.541-5.881-24.724-7.7c-5.183-1.819-6.147-4.155,3.672-7.315S429.052,115.474,429.052,115.474z"/>
		<path fill="#FF7764" d="M427.512,142.503c3.183,1.772,3.93,6.737-3.088,13.658c-7.018,6.921-10.701,4.992-11.899,2.855
			c-1.198-2.137-9.76-17.922-12.166-22.859c-2.406-4.937-1.45-7.277,7.755-2.62C417.318,138.195,427.512,142.503,427.512,142.503z"
			/>
		<path fill="#FF7764" d="M407.412,160.64c1.017,3.497-1.942,7.554-11.8,7.54c-9.857-0.013-11.12-3.975-10.469-6.336
			c0.651-2.361,5.661-19.606,7.422-24.809c1.761-5.203,4.085-6.194,7.356,3.59C403.193,150.408,407.412,160.64,407.412,160.64z"/>
		<path fill="#FF7764" d="M380.368,159.404c-1.736,3.202-6.692,4.005-13.692-2.935c-7-6.94-5.112-10.645-2.989-11.866
			s17.811-9.961,22.721-12.422c4.91-2.462,7.26-1.532,2.707,7.725C384.561,149.162,380.368,159.404,380.368,159.404z"/>
		<path fill="#FF7764" d="M362.006,139.509c-3.486,1.057-7.575-1.857-7.673-11.714c-0.098-9.857,3.849-11.164,6.218-10.539
			c2.369,0.624,19.669,5.441,24.891,7.143c5.222,1.702,6.239,4.015-3.507,7.396C372.19,135.175,362.006,139.509,362.006,139.509z"/>
		<path fill="#FF7764" d="M362.938,112.452c-3.222-1.7-4.08-6.647,2.781-13.724c6.861-7.077,10.587-5.231,11.832-3.122
			c1.245,2.109,10.16,17.698,12.677,22.58c2.517,4.882,1.613,7.242-7.694,2.793C373.227,116.531,362.938,112.452,362.938,112.452z"
			/>
		<path fill="#FEBD9C" d="M394.925,119.372c0,0-3.285-6.57-1.642-7.508C394.925,110.926,394.925,119.372,394.925,119.372z"/>
		<path fill="#FEBD9C" d="M396.567,115.618c0,0-0.235-8.212,2.112-7.508S396.567,115.618,396.567,115.618z"/>
		<path fill="#FEBD9C" d="M400.79,99.194c0,0-2.112-10.558,0.939-10.089C404.779,89.575,400.79,99.194,400.79,99.194z"/>
		<path fill="#FEBD9C" d="M394.221,106.702c0,0-5.631-8.681-2.346-9.15S394.221,106.702,394.221,106.702z"/>
		<path fill="#FEBD9C" d="M412.053,104.356c0,0,1.408-8.447,3.754-6.57S412.053,104.356,412.053,104.356z"/>
		<path fill="#FEBD9C" d="M412.756,113.976c0,0,7.273-8.681,8.916-6.335C423.315,109.987,416.51,113.037,412.756,113.976z"/>
		<path fill="#FEBD9C" d="M400.79,120.545c0,0,5.162-10.558,6.804-7.977S400.79,120.545,400.79,120.545z"/>
		<path fill="#FEBD9C" d="M416.745,122.657c0,0,11.262-4.927,11.966-1.877C429.415,123.83,418.622,123.596,416.745,122.657z"/>
		<path fill="#FEBD9C" d="M404.075,127.115c0,0,11.262-1.877,11.966,2.581S404.075,127.115,404.075,127.115z"/>
		<path fill="#FEBD9C" d="M401.025,132.981c0,0,3.05,8.916,5.631,7.743C409.237,139.55,401.025,132.981,401.025,132.981z"/>
		<path fill="#FEBD9C" d="M412.287,140.02c0,0,2.581,6.57,5.396,4.927C420.499,143.304,412.287,140.02,412.287,140.02z"/>
		<path fill="#FEBD9C" d="M411.114,147.528c0,0,2.346,9.385,4.927,8.212C418.622,154.566,411.114,147.528,411.114,147.528z"/>
		<path fill="#FEBD9C" d="M395.394,134.623c0,0-3.989,9.15-0.939,9.385C397.506,144.243,395.394,134.623,395.394,134.623z"/>
		<path fill="#FEBD9C" d="M397.271,146.589c0,0-0.704,13.374,2.816,11.966C403.606,157.147,397.271,146.589,397.271,146.589z"/>
		<path fill="#FEBD9C" d="M391.875,153.863c0,0-4.223,9.15-0.704,9.854C394.69,164.421,391.875,153.863,391.875,153.863z"/>
		<path fill="#FEBD9C" d="M379.205,148.701c0,0-7.977,6.57-4.693,8.681C377.797,159.494,379.205,148.701,379.205,148.701z"/>
		<path fill="#FEBD9C" d="M377.797,140.254c0,0-11.731,2.581-8.447,7.743C372.635,153.159,377.797,140.254,377.797,140.254z"/>
		<path fill="#FEBD9C" d="M389.763,132.042c0,0-8.212,5.162-6.335,7.273S389.763,132.042,389.763,132.042z"/>
		<path fill="#FEBD9C" d="M387.182,125.942c0,0-10.089-4.693-9.151-0.939C378.97,128.757,387.182,125.942,387.182,125.942z"/>
		<path fill="#FEBD9C" d="M382.02,128.992c0,0-11.262-2.112-10.089,1.877C373.104,134.858,382.02,128.992,382.02,128.992z"/>
		<path fill="#FEBD9C" d="M374.043,122.422c0,0-8.681-4.693-10.558-1.408C361.608,124.299,374.043,122.422,374.043,122.422z"/>
		<path fill="#FEBD9C" d="M389.528,121.249c0,0-3.285-10.089-5.866-7.977C381.082,115.384,389.528,121.249,389.528,121.249z"/>
		<path fill="#FEBD9C" d="M381.316,116.557c0,0-6.335-8.212-8.447-6.335C370.758,112.099,381.316,116.557,381.316,116.557z"/>
		<path fill="#FEBD9C" d="M381.551,108.579c0,0-1.642-12.201-5.396-10.793S381.551,108.579,381.551,108.579z"/>
	</g>
</g>
<g>
	<path fill="none" stroke="#FF7858" stroke-width="8.8648" stroke-miterlimit="10" d="M420.631,79.738l29.476-52.557
		c0,0,5.901-12.619,19.661,0.807c13.76,13.425,19.237,20.647,19.237,20.647"/>
	<path fill="none" stroke="#FFFFFF" stroke-width="2.1107" stroke-miterlimit="10" d="M420.609,79.793l29.498-52.612
		c0,0,6.564-12.542,19.661,0.807c13.76,13.425,19.237,20.647,19.237,20.647"/>
</g>
<g>
	<g>
		<polygon fill="#FFFFE7" points="56.968,65.729 68.06,67.011 77.199,63.722 90.982,69.825 105.062,64.708 115.773,68.331 
			132.585,58.788 155.635,60.616 172.908,58.226 183.174,50.996 190.502,39.068 114.785,40.83 66.116,60.591 		"/>
		<polygon fill="#FFA84A" points="128.166,54.206 133.368,82.569 129.544,82.922 124.592,53.82 		"/>
		<polygon fill="#FF7858" points="120.298,20.879 56.968,65.729 69.684,62.21 75.839,64.703 85.855,58.212 97.186,61.221 
			109.902,57.701 119.255,61.688 128.288,54.453 142.324,59.201 154.573,49.76 170.819,54.297 175.884,47.543 190.627,38.698 		"/>
		<path fill="#FFA84A" d="M118.056,25.217c0,0-1.062-8.332-1.691-12.12s-1.188-4.739,1.846-5.564
			c3.034-0.825,2.991,3.998,3.536,6.557c0.545,2.558,2.18,10.233,2.18,10.233l-4.459-1.962L118.056,25.217z"/>
	</g>
	
		<line fill="none" stroke="#FFFFE7" stroke-width="0.3899" stroke-miterlimit="10" x1="133.826" y1="28.953" x2="173.228" y2="41.458"/>
	
		<line fill="none" stroke="#FFFFE7" stroke-width="0.3899" stroke-miterlimit="10" x1="125.931" y1="29.782" x2="150.765" y2="46.414"/>
	
		<line fill="none" stroke="#FFFFE7" stroke-width="0.3899" stroke-miterlimit="10" x1="125.04" y1="36.066" x2="129.288" y2="51.498"/>
	
		<line fill="none" stroke="#FFFFE7" stroke-width="0.3899" stroke-miterlimit="10" x1="119.516" y1="30.493" x2="114.024" y2="45.512"/>
	
		<line fill="none" stroke="#FFFFE7" stroke-width="0.3899" stroke-miterlimit="10" x1="111.862" y1="32.432" x2="88.093" y2="54.029"/>
	<line fill="none" stroke="#FFFFE7" stroke-width="0.3899" stroke-miterlimit="10" x1="72.167" y1="58.521" x2="114.1" y2="28.25"/>
</g>
</svg>
